<svg xmlns="http://www.w3.org/2000/svg">
<defs>
<font id="Tofino-Light" horiz-adv-x="503" ><font-face
    font-family="Tofino-Light"
    units-per-em="1000"
    panose-1="2 0 0 0 0 0 0 0 0 0"
    ascent="1066"
    descent="-298"
    alphabetic="0" />
<missing-glyph horiz-adv-x="651" d="M50 0V702H601V0H50ZM175 171Q152 199 140 234T127 309Q127 355 144 395T190 464Q170 492 180 523L71 664V35L175 171ZM569 682H82L190 542Q207 568 243 584T324 600Q368 600 404 584T461 541L569 682ZM461 157Q435 130 400
114T324 98Q285 98 250 113T189 156L84 20H568L461 157ZM580 662L471 523Q471 522 472 522Q486 527 501 528T528 521Q541 512 543 491Q545 470 532 459Q522 452 508 452Q497 452 486 454T462 461Q490 432 506 393T522 309Q522 270 510 236T475 173L580 37V662ZM481
307Q484 281 475 258T442 232Q436 231 428 231T410 230Q398 230 385 231T363 237Q351 244 344 257T335 282Q334 284 334 287Q331 297 323 297Q317 297 314 287Q313 286 313 282Q311 271 304 258T284 237Q276 232 263 231T237 230Q229 230 220 230T206 232Q183 235
173 258T166 307V308L151 322V309Q151 270 164 236T201 177T256 136T324 121Q360 121 391 136T447 176T484 236T498 309Q498 314 498 317T497 326Q490 320 481 308V307ZM395 480L385 482Q372 484 359 486T336 496Q332 497 324 497Q288 497 255 482Q245 471 245
460T250 441Q257 427 275 411T323 383T395 363T492 358Q475 423 426 461Q421 461 418 462Q403 467 396 480H395ZM297 306H296Q289 310 271 313T230 316Q201 316 190 312T178 306Q177 298 178 288T182 268T191 252T207 244Q213 243 221 243T237 242Q269 242 279
247Q287 252 293 262T301 284Q304 297 299 304L297 306ZM470 306Q469 308 458 312T418 316Q395 316 377 313T352 306Q351 306 351 305Q350 305 349 304Q344 297 347 284Q349 272 355 262T369 247Q379 242 410 242Q419 242 427 242T441 244Q450 245 456 252T465
268T470 287T470 306ZM437 532Q419 553 387 564T324 576Q282 576 248 560T204 519Q195 500 208 480Q232 499 260 509T320 521Q320 526 320 530T323 541Q332 562 348 566Q363 570 379 559T411 533Q413 531 413 531Q420 534 428 534Q431 534 437 532ZM173 318Q180

<glyph unicode=" " glyph-name="space" horiz-adv-x="218" />
<glyph unicode="!" glyph-name="exclam" horiz-adv-x="215" d="M91 0V94H124V0H91ZM92 154L91 704H124L123 154H92Z" />
<glyph unicode="&quot;" glyph-name="quotedbl" horiz-adv-x="185" d="M34 600L28 759H67L61 600H34ZM124 600L118 759H157L151 600H124Z" />
<glyph unicode="#" glyph-name="numbersign" horiz-adv-x="640" d="M339 0L382 216H174L131 0H99L142 216H34V245H148L194 476H81V505H200L239 702H271L232 505H440L479 702H511L472 505H578V476H466L420 245H531V216H414L371 0H339ZM434 476H226L180 245H388L434 476Z" />
<glyph unicode="$" glyph-name="dollar" horiz-adv-x="550" d="M260 -58V36Q160 40 107 87T53 235H86Q86 160 126 115T260 65V365Q222 372 187 382T124 410T79 459T62 537Q62 608 111 652T260 699V770H287V699Q341 697 378 683T439 645T473 590T483 522H450Q450
546 444 571T420 618T370 653T287 669V391Q326 383 364 373T432 343T481 290T500 203Q500 125 442 82T287 36V-58H260ZM287 65Q376 67 421 105T466 203Q466 245 451 272T411 316T354 342T287 359V65ZM260 669Q214 667 183 656T132 626T105 585T96 537Q96 500 109
476T145 437T197 413T260 397V669Z" />
<glyph unicode="%" glyph-name="percent" horiz-adv-x="704" d="M92 0L552 702H587L127 0H92ZM183 378Q143 378 116 390T71 423T47 475T39 541Q39 578 46 609T71 662T115 696T183 708Q223 708 250 696T295 662T319 609T326 541Q326 505 319 475T295 424T251 390T183
378ZM183 403Q246 403 271 438T296 541Q296 609 271 646T183 683Q121 683 95 646T69 541Q69 474 95 439T183 403ZM494 -6Q454 -6 427 6T382 39T358 91T350 157Q350 194 357 225T382 278T426 312T494 324Q534 324 561 312T606 278T630 225T637 157Q637 121 630 91T606
40T562 6T494 -6ZM495 19Q558 19 583 54T608 157Q608 223 583 261T495 299Q433 299 407 262T381 157Q381 90 407 55T495 19Z" />
<glyph unicode="&amp;" glyph-name="ampersand" horiz-adv-x="662" d="M587 0Q580 8 569 19Q560 28 548 40T521 69Q486 20 432 2T302 -16Q183 -16 124 36T64 197Q64 252 80 289T120 351T168 387T212 405Q181 441 167 474T152 557Q152 594 161 624T192 675T246
707T328 719Q417 719 455 675T494 555H460Q460 617 430 652T328 688Q250 688 219 654T187 557Q187 520 197 492T228 437T279 378T350 304Q393 256 435 210T515 124Q547 198 547 345H579Q579 260 569 201T538 99Q558 76 575 58T604 27Q618 12 630 0H587ZM232 382Q217
378 194 368T150 336T113 282T98 198Q98 157 108 124T143 66T206 29T302 15Q374 15 422 32T499 93Q457 137 407 192T306 303L232 382Z" />
<glyph unicode="&apos;" glyph-name="quotesingle" horiz-adv-x="93" d="M33 600L27 759H66L60 600H33Z" />
<glyph unicode="(" glyph-name="parenleft" horiz-adv-x="218" d="M184 -198Q149 -143 122 -71Q99 -9 80 78T60 277Q60 388 76 477T112 629Q135 703 164 760H197Q168 700 145 625Q125 561 109 472T93 277Q93 170 112 83T155 -67Q182 -140 217 -198H184Z" />
<glyph unicode=")" glyph-name="parenright" horiz-adv-x="218" d="M1 -198Q36 -140 63 -67Q86 -4 105 83T125 277Q125 383 109 472T73 625Q50 700 21 760H54Q83 703 106 629Q126 566 142 477T158 277Q158 166 139 79T96 -71Q69 -143 34 -198H1Z" />
<glyph unicode="*" glyph-name="asterisk" horiz-adv-x="297" d="M208 517L149 594L89 517L64 537L127 610L40 636L49 666L136 634L133 725H164L162 634L249 666L257 636L170 610L234 537L208 517Z" />
<glyph unicode="+" glyph-name="plus" horiz-adv-x="434" d="M202 122V294H30V323H202V495H233V323H404V294H233V122H202Z" />
<glyph unicode="," glyph-name="comma" horiz-adv-x="138" d="M5 -88Q12 -75 18 -58Q23 -44 29 -25T42 19Q47 42 49 59T54 89Q55 103 55 113H92Q93 103 91 89Q89 77 86 59T78 18Q72 -5 65 -24T51 -58Q43 -75 36 -88H5Z" />
<glyph unicode="-" glyph-name="hyphen" horiz-adv-x="322" d="M60 305V335H262V305H60Z" />
<glyph unicode="." glyph-name="period" horiz-adv-x="121" d="M42 0V113H79V0H42Z" />
<glyph unicode="/" glyph-name="slash" horiz-adv-x="404" d="M40 -40L350 800H385L75 -40H40Z" />
<glyph unicode="0" glyph-name="zero" horiz-adv-x="637" d="M69 348Q69 439 81 507T122 620T199 687T319 710Q390 710 438 688T515 620T556 507T568 348Q568 257 556 190T515 79T438 12T319 -10Q247 -10 199 12T122 78T81 190T69 348ZM533 348Q533 438 521 501T483
603T416 660T318 678Q261 678 221 660T154 603T115 501T103 348Q103 258 115 196T153 95T220 39T318 21Q375 21 415 38T482 95T521 196T533 348Z" />
<glyph unicode="1" glyph-name="one" horiz-adv-x="265" d="M138 0V668L0 600V634L141 704H172V0H138Z" />
<glyph unicode="2" glyph-name="two" horiz-adv-x="523" d="M39 5V45Q39 45 56 61T103 103T171 164T251 239Q291 277 323 309T378 374T413 440T426 517Q426 598 380 638T250 679Q168 679 121 639T74 520H39Q39 610 94 660T250 710Q350 710 405 661T460 518Q460
473 448 436T412 365T357 298T284 225Q243 186 207 152T141 92Q108 62 78 37H472V5H39Z" />
<glyph unicode="3" glyph-name="three" horiz-adv-x="542" d="M66 178Q66 146 78 118T115 68T175 35T258 22Q359 22 408 72T458 218Q458 311 405 362T255 414Q239 414 224 413T197 409Q183 406 169 404V435L431 662L72 661V692H476V662L218 443Q227 444 236 444T255
445Q373 445 432 383T492 218Q492 166 479 124T437 52T364 6T258 -10Q200 -10 158 5T89 47T48 107T34 178H66Z" />
<glyph unicode="4" glyph-name="four" horiz-adv-x="538" d="M389 0V168H26V199L386 702H422V199H508V168H422V0H389ZM390 656L66 199H389L390 656Z" />
<glyph unicode="5" glyph-name="five" horiz-adv-x="579" d="M87 175Q87 144 100 117T138 68T202 35T291 22Q389 22 440 73T491 223Q491 322 437 373T291 424Q238 424 204 411T149 383Q125 365 112 342H79L133 661L137 692H488V661H166L120 390Q127 399 139 410T173
431T224 448T295 455Q407 455 466 394T526 223Q526 115 469 53T291 -10Q229 -10 185 5T111 47T68 106T54 175H87Z" />
<glyph unicode="6" glyph-name="six" horiz-adv-x="618" d="M486 529Q486 555 477 582T446 631T392 667T310 681Q260 681 223 665T160 609T121 503T104 337Q114 358 131 380T175 420T238 450T323 462Q383 462 426 445T496 398T536 323T549 225Q549 171 536 128T494
54T420 7T310 -10Q182 -10 126 67T69 309Q69 418 82 495T125 620T200 690T310 712Q370 712 410 694T475 649T510 589T521 529H486ZM104 282Q106 211 120 161T159 80T222 35T310 21Q515 21 515 225Q515 326 466 378T320 430Q266 430 228 413T164 373T125 324T104
282Z" />
<glyph unicode="7" glyph-name="seven" horiz-adv-x="457" d="M128 0Q128 69 140 134T173 259T219 372T272 470Q335 576 416 665H10V696H453V665Q371 575 307 469Q280 424 254 371T207 257T175 133T162 0H128Z" />
<glyph unicode="8" glyph-name="eight" horiz-adv-x="618" d="M403 373Q418 372 443 363T491 332T532 277T549 190Q549 145 536 108T493 45T419 4T309 -10Q245 -10 200 4T125 44T83 108T69 190Q69 242 85 276T125 332T173 362T214 373Q202 374 182 382T141 407T107
453T92 522Q92 564 103 599T141 659T208 699T309 713Q368 713 409 699T476 660T514 599T526 522Q526 481 512 453T477 408T437 382T403 373ZM515 191Q515 274 466 315T309 357Q202 357 153 316T104 191Q104 102 156 62T309 22Q410 22 462 62T515 191ZM492 520Q492
604 446 642T309 681Q218 681 173 643T127 520Q127 455 169 421T309 387Q406 387 449 421T492 520Z" />
<glyph unicode="9" glyph-name="nine" horiz-adv-x="618" d="M114 172Q114 146 125 119T159 71T219 35T308 21Q358 21 395 34T458 84T497 182T514 343Q504 322 487 300T444 259T381 228T295 216Q235 216 193 234T123 286T82 368T69 475Q69 529 82 573T125 648T199
695T308 712Q372 712 417 694T492 634T535 528T549 371Q549 263 536 190T493 73T418 9T308 -10Q243 -10 199 8T128 53T90 113T78 172H114ZM515 394Q513 476 499 531T460 619T396 667T308 681Q204 681 154 630T104 475Q104 363 152 305T298 247Q353 247 391 264T454
304T494 352T515 394Z" />
<glyph unicode=":" glyph-name="colon" horiz-adv-x="157" d="M60 0V113H97V0H60ZM60 350V463H97V350H60Z" />
<glyph unicode=";" glyph-name="semicolon" horiz-adv-x="165" d="M10 -88Q17 -75 23 -58Q28 -44 34 -25T47 19Q52 42 54 59T59 89Q60 103 60 113H97Q98 103 96 89Q94 77 91 59T83 18Q77 -5 70 -24T56 -58Q48 -75 41 -88H10ZM61 350V463H98V350H61Z" />
<glyph unicode="&lt;" glyph-name="less" horiz-adv-x="437" d="M38 299V325L398 461V430L72 311L398 194V163L38 299Z" />
<glyph unicode="=" glyph-name="equal" horiz-adv-x="454" d="M48 354V384H406V354H48ZM48 219V249H406V219H48Z" />
<glyph unicode="&gt;" glyph-name="greater" horiz-adv-x="437" d="M39 163V194L365 311L39 430V461L399 325V299L39 163Z" />
<glyph unicode="?" glyph-name="question" horiz-adv-x="435" d="M181 0V94H214V0H181ZM181 154V197Q181 245 193 275T223 326T261 363T300 398T330 446T342 519Q342 678 197 678Q53 678 53 515H19Q19 606 62 656T198 707Q291 707 333 657T376 521Q376 473 364
442T334 390T295 351T255 315T225 268T213 197V154H181Z" />
<glyph unicode="@" glyph-name="at" horiz-adv-x="844" d="M558 354Q553 372 542 393T513 432T471 462T415 475Q337 475 306 422T274 278Q274 188 305 137T415 85Q446 85 470 94T511 119T540 151T558 186V354ZM594 -86Q559 -99 517 -106T421 -114Q319 -114 250
-84T139 -1T78 123T60 277Q60 359 78 433T138 562T249 650T421 683Q525 683 595 651T707 563T767 433T785 277Q785 206 777 158T754 79T716 36T663 22Q637 22 619 30T588 55T570 93T560 143Q551 127 538 112T507 85T466 66T412 59Q363 59 330 75T278 120T250 189T241
278Q241 327 249 368T277 438T330 484T412 501Q441 501 464 493T506 471T536 440T558 405V450L560 491H590V192Q590 119 606 83T664 47Q685 47 702 56T731 91T749 162T756 277Q756 357 739 426T683 547T580 628T421 658Q328 658 265 629T162 548T106 427T89 277Q89
197 105 130T161 15T264 -61T422 -89Q473 -89 516 -82T594 -57V-86Z" />
<glyph unicode="A" glyph-name="A" horiz-adv-x="608" d="M557 0L476 210H129L49 0H13L286 704H322L594 0H557ZM303 664L141 242H464L303 664Z" />
<glyph unicode="B" glyph-name="B" horiz-adv-x="638" d="M92 -4V707H342Q406 707 448 694T516 657T552 602T563 533Q563 503 558 477T539 430T499 394T430 372Q475 364 505 347T552 306T576 253T583 190Q583 144 575 108T541 47T468 9T341 -4H92ZM341 27Q404
27 444 36T507 64T539 115T548 192Q548 231 537 261T502 313T438 345T341 356H126V28L341 27ZM341 386Q398 386 434 395T491 423T520 469T528 531Q528 605 484 641T341 677H126V387L341 386Z" />
<glyph unicode="C" glyph-name="C" horiz-adv-x="645" d="M588 212Q583 104 524 44T339 -16Q258 -16 204 10T118 83T73 199T60 351Q60 435 73 503T118 619T204 694T339 720Q467 720 527 656T590 480H556Q552 583 499 635T339 688Q271 688 225 667T149 603T107
497T94 351Q94 268 107 205T149 100T224 37T339 15Q543 15 554 212H588Z" />
<glyph unicode="D" glyph-name="D" horiz-adv-x="660" d="M258 27Q357 26 417 45T512 110Q541 149 553 208T565 351Q565 445 550 508T496 610Q461 645 404 661T258 677H126V28L258 27ZM92 -4V707H257Q365 707 431 685T535 617T586 506T599 351Q599 262 586 196T536
85T432 19T257 -4H92Z" />
<glyph unicode="E" glyph-name="E" horiz-adv-x="547" d="M92 0V704H522V672H126V384H472V353H126V32H526V0H92Z" />
<glyph unicode="F" glyph-name="F" horiz-adv-x="530" d="M126 342V0H92V704H521V672H126V373H471V342H126Z" />
<glyph unicode="G" glyph-name="G" horiz-adv-x="656" d="M553 302H388V333H586V76Q586 71 572 56T527 25T451 -3T339 -16Q258 -16 204 9T118 82T73 198T60 350Q60 434 73 502T118 619T204 694T339 720Q404 720 451 702T529 653T574 582T589 498H555Q555 537 541
571T500 632T433 673T339 688Q271 688 225 667T149 602T107 496T94 350Q94 267 107 205T149 100T225 37T340 15Q391 15 430 24T497 45T538 69T553 87V302Z" />
<glyph unicode="H" glyph-name="H" horiz-adv-x="683" d="M556 0V352H126V0H92V703L126 704V385H556V704H590V0H556Z" />
<glyph unicode="I" glyph-name="I" horiz-adv-x="219" d="M92 0V704H126V0H92Z" />
<glyph unicode="J" glyph-name="J" horiz-adv-x="346" d="M2 0V34H52Q110 34 146 45T201 82T226 151T233 259L232 702H266L268 259Q268 188 261 139T231 58T165 14T52 0H2Z" />
<glyph unicode="K" glyph-name="K" horiz-adv-x="570" d="M518 0L253 367L126 224V0H92V704H126V264L512 704H554L275 391L557 0H518Z" />
<glyph unicode="L" glyph-name="L" horiz-adv-x="494" d="M92 0V704H126V31H479V0H92Z" />
<glyph unicode="M" glyph-name="M" horiz-adv-x="809" d="M681 0L684 666L417 -2H382L122 670L124 0H92V702H145L401 37L666 702H717L715 0H681Z" />
<glyph unicode="N" glyph-name="N" horiz-adv-x="704" d="M580 -2V0L575 -2L128 653L126 0H92L96 704H128V701L133 704L580 51L578 704H612V-2H580Z" />
<glyph unicode="O" glyph-name="O" horiz-adv-x="686" d="M60 351Q60 435 73 503T118 619T205 694T343 720Q426 720 480 694T567 620T613 503T626 351Q626 267 613 199T568 84T481 10T343 -16Q260 -16 206 10T119 83T73 199T60 351ZM592 351Q592 433 579 496T537
602T460 666T343 688Q273 688 226 667T149 602T107 496T94 351Q94 268 106 205T148 100T225 37T343 15Q412 15 460 36T537 100T579 205T592 351Z" />
<glyph unicode="P" glyph-name="P" horiz-adv-x="619" d="M92 0V707H342Q400 707 444 697T519 662T565 596T581 490Q581 426 566 384T520 317T444 282T341 272H126V0H92ZM341 304Q386 304 424 310T491 338Q517 358 531 394T546 490Q546 546 533 581T497 636Q468
662 428 669T341 676H126V305L341 304Z" />
<glyph unicode="Q" glyph-name="Q" horiz-adv-x="688" d="M504 22Q473 4 434 -6T343 -16Q260 -16 206 10T119 83T73 199T60 351Q60 435 73 503T118 619T205 694T343 720Q426 720 480 694T567 620T613 503T626 351Q626 244 605 165T527 39L648 -56L626 -81L504
22ZM343 15Q412 15 460 36T537 100T579 205T592 351Q592 433 579 496T537 602T460 666T343 688Q273 688 226 667T149 602T107 496T94 351Q94 268 106 205T148 100T225 37T343 15Z" />
<glyph unicode="R" glyph-name="R" horiz-adv-x="640" d="M555 0L395 303Q382 301 369 301T341 301H127V0H92V707H342Q400 707 444 698T519 665T564 603T580 504Q580 456 571 421T542 363T495 327T429 307L594 0H555ZM341 332Q383 332 420 336T486 359Q513 376
528 410T544 504Q544 552 533 583T502 634Q474 661 432 668T341 676H127V333L341 332Z" />
<glyph unicode="S" glyph-name="S" horiz-adv-x="618" d="M515 525Q515 552 506 581T473 633T409 672T306 689Q246 689 207 677T146 644T115 596T106 541Q106 494 126 466T178 420T252 394T337 376T421 355T495 321T548 263T568 169Q568 81 503 32T310 -16Q251
-16 204 -3T123 37T71 106T53 205H87Q87 117 141 67T310 15Q371 14 413 25T482 58T521 107T533 169Q533 220 513 251T461 301T387 330T302 349T218 369T144 400T91 453T71 541Q71 581 84 614T126 671T199 708T305 720Q370 719 416 704T492 663T535 602T549 525H515Z"
/>
<glyph unicode="T" glyph-name="T" horiz-adv-x="536" d="M246 0L251 672H11V704H525V672H285L280 0H246Z" />
<glyph unicode="U" glyph-name="U" horiz-adv-x="677" d="M565 704H600V349Q600 265 590 198T552 83T472 10T339 -16Q256 -16 205 9T126 82T88 197T78 349V704H112V349Q112 266 121 204T156 99T225 36T338 15Q407 15 451 36T520 99T555 203T565 349V704Z" />
<glyph unicode="V" glyph-name="V" horiz-adv-x="570" d="M266 0L4 704H42L285 41L529 704H565L303 0H266Z" />
<glyph unicode="W" glyph-name="W" horiz-adv-x="925" d="M662 0L461 657L269 0H233L13 704H51L251 43L444 704H479L683 43L876 704H911L700 0H662Z" />
<glyph unicode="X" glyph-name="X" horiz-adv-x="594" d="M532 0L296 327L55 0H17L277 354L26 704H65L298 380L537 704H575L317 353L571 0H532Z" />
<glyph unicode="Y" glyph-name="Y" horiz-adv-x="553" d="M264 0V285L13 704H53L282 321L501 704H539L299 285V0H264Z" />
<glyph unicode="Z" glyph-name="Z" horiz-adv-x="531" d="M20 5V37L465 668H49V699H504V666L57 35H508V5H20Z" />
<glyph unicode="[" glyph-name="bracketleft" horiz-adv-x="267" d="M80 -196V760H257V728H113V-165H257V-196H80Z" />
<glyph unicode="\" glyph-name="backslash" horiz-adv-x="425" d="M350 -40L40 800H75L385 -40H350Z" />
<glyph unicode="]" glyph-name="bracketright" horiz-adv-x="267" d="M10 -196V-165H154V728H10V760H187V-196H10Z" />
<glyph unicode="^" glyph-name="asciicircum" horiz-adv-x="355" d="M282 471L177 696L72 471H40L165 733H189L314 471H282Z" />
<glyph unicode="_" glyph-name="underscore" horiz-adv-x="521" d="M60 0V29H460V0H60Z" />
<glyph unicode="`" glyph-name="grave" horiz-adv-x="253" d="M134 637L58 762H100L166 637H134Z" />
<glyph unicode="a" glyph-name="a" horiz-adv-x="554" d="M449 1L439 94Q418 46 369 19T235 -9Q137 -9 98 30T58 143Q58 204 87 238Q108 262 141 274T220 290T319 294T435 293Q434 361 429 405T402 475Q385 495 356 504T279 513Q224 513 191 499T140 465T117 421T111
377H80Q80 400 86 428T112 481T172 523T278 540Q335 540 371 529T428 495Q456 465 462 418T468 312V264V131L479 1H449ZM435 268Q356 268 293 268T184 258T115 221T91 142Q91 114 98 91T122 52T168 26T238 17Q323 17 372 52T435 143V268Z" />
<glyph unicode="b" glyph-name="b" horiz-adv-x="584" d="M84 0L94 134V760H127V437Q135 450 150 467T190 501T247 528T322 540Q378 540 417 520T480 462T515 375T526 263Q526 203 515 153T480 67T417 12T322 -8Q279 -8 247 1T190 27T150 63T124 104L114 0H84ZM127
162Q131 141 144 116T180 70T237 34T319 20Q408 20 450 84T492 263Q492 378 450 445T319 512Q274 512 240 497T183 462T147 422T127 389V162Z" />
<glyph unicode="c" glyph-name="c" horiz-adv-x="537" d="M484 162Q483 87 432 39T276 -9Q213 -9 171 11T105 67T70 153T59 265Q59 325 69 375T104 462T171 519T276 540Q382 540 432 489T484 349H450Q450 427 405 469T276 512Q225 512 190 495T134 446T103 368T93
265Q93 206 102 161T133 84T190 37T276 20Q358 20 404 58T450 162H484Z" />
<glyph unicode="d" glyph-name="d" horiz-adv-x="584" d="M471 0L461 104Q451 83 435 63T395 27T338 2T262 -8Q206 -8 168 11T105 67T70 153T59 263Q59 324 70 374T105 462T167 519T262 540Q304 540 337 528T394 499T434 463T458 431V760H491V134L501 0H471ZM458
380Q452 393 438 415T401 458T344 496T265 512Q177 512 135 445T93 263Q93 148 135 84T265 20Q313 20 347 34T404 69T440 116T458 162V380Z" />
<glyph unicode="e" glyph-name="e" horiz-adv-x="556" d="M492 154Q492 140 485 113T456 59T391 11T279 -10Q219 -10 177 7T109 58T71 143T59 263Q59 331 70 382T108 469T177 522T279 540Q331 540 371 527T440 484T482 406T497 286H463L93 287V262Q93 212 100
168T127 91T184 38T278 18Q332 18 366 33T421 70T449 115T457 154H492ZM462 314Q460 361 449 398T416 460T360 499T278 513Q228 513 195 497T140 454T109 391T95 314H462Z" />
<glyph unicode="f" glyph-name="f" horiz-adv-x="280" d="M93 0V502H20V531H93V572Q93 616 98 652T118 714T163 754T241 768H284V738H243Q206 738 183 727T148 695T131 643T126 572V531H278V502H126V0H93Z" />
<glyph unicode="g" glyph-name="g" horiz-adv-x="574" d="M457 97Q446 77 430 58T391 25T335 1T262 -8Q206 -8 168 11T105 67T70 153T59 263Q59 324 70 374T105 462T167 519T262 540Q305 540 338 528T396 500T436 465T460 434L469 531H499L490 401V0Q490 -45 485
-88T459 -165T395 -219T275 -240Q172 -240 120 -179Q80 -133 80 -56H112Q112 -61 112 -72T116 -97T125 -126T142 -157Q159 -180 190 -196T275 -212Q325 -212 357 -202T410 -173Q442 -144 449 -98T457 0V97ZM457 391Q451 403 437 423T400 463T344 497T265 512Q177
512 135 445T93 263Q93 148 135 84T265 20Q311 20 344 33T401 67T438 111T457 157V391Z" />
<glyph unicode="h" glyph-name="h" horiz-adv-x="581" d="M464 0V314Q464 363 457 399T432 461T385 498T311 511Q264 511 230 492T173 448T136 397T117 359V0H84V760H115L117 408Q124 423 139 445T179 489T236 525T314 540Q360 540 394 529T452 492T486 422T497
315V0H464Z" />
<glyph unicode="i" glyph-name="i" horiz-adv-x="207" d="M87 0V531H120V0H87ZM87 637V750H121V637H87Z" />
<glyph unicode="j" glyph-name="j" horiz-adv-x="219" d="M-21 -142Q23 -142 47 -133T82 -104T96 -52T98 28V531H131V28Q131 -27 128 -65T109 -127T64 -161T-21 -172V-142ZM98 637V750H132V637H98Z" />
<glyph unicode="k" glyph-name="k" horiz-adv-x="478" d="M436 0L220 302L124 204V0H91V760H124V244L402 531H443L241 324L473 0H436Z" />
<glyph unicode="l" glyph-name="l" horiz-adv-x="215" d="M91 0V760H124V0H91Z" />
<glyph unicode="m" glyph-name="m" horiz-adv-x="914" d="M797 0V314Q797 412 767 461T657 511Q619 511 589 495T537 455T501 408T479 368Q482 344 482 315Q482 310 482 294T482 255T481 204T481 148V0H449V314Q449 412 419 461T309 511Q267 511 236 492T182 447T146
396T127 358V0H94V385L84 531H114L125 403Q131 418 146 441T184 486T239 524T312 540Q378 540 419 511T474 407Q481 422 496 444T534 488T589 525T660 540Q702 540 733 529T786 492T819 422T830 315V0H797Z" />
<glyph unicode="n" glyph-name="n" horiz-adv-x="581" d="M464 0V314Q464 363 457 399T432 461T385 498T311 511Q272 511 242 497T189 463T151 420T127 380V0H94V385L84 531H114L123 419Q132 436 148 457T187 496T242 527T314 540Q360 540 394 529T452 492T486
422T497 315V0H464Z" />
<glyph unicode="o" glyph-name="o" horiz-adv-x="562" d="M281 -10Q215 -10 172 10T104 66T69 152T59 264Q59 325 69 375T104 463T172 520T281 541Q347 541 390 521T458 464T493 376T503 264Q503 203 493 153T458 66T390 10T281 -10ZM281 19Q335 19 371 35T428
83T459 160T469 264Q469 322 460 368T429 446T371 496T281 513Q227 513 191 496T133 447T102 368T93 264Q93 206 102 161T133 84T191 36T281 19Z" />
<glyph unicode="p" glyph-name="p" horiz-adv-x="584" d="M94 -240V402L84 531H114L124 425Q131 438 146 457T186 495T244 527T322 540Q378 540 417 520T480 462T515 375T526 263Q526 203 515 153T480 67T417 12T322 -8Q280 -8 249 1T193 25T153 59T127 98V-133Q127
-189 128 -240H94ZM127 162Q131 140 144 115T180 69T237 34T319 20Q408 20 450 84T492 263Q492 378 450 445T319 512Q274 512 241 496T184 459T147 415T127 380V162Z" />
<glyph unicode="q" glyph-name="q" horiz-adv-x="584" d="M457 -240V97Q446 77 430 58T391 25T335 1T262 -8Q206 -8 168 11T105 67T70 153T59 263Q59 324 70 374T105 462T167 519T262 540Q304 540 337 529T394 501T434 467T458 436L470 531H500L490 424V-240H457ZM457
391Q451 403 437 423T400 463T344 497T265 512Q177 512 135 445T93 263Q93 148 135 84T265 20Q311 20 344 33T401 67T438 111T457 157V391Z" />
<glyph unicode="r" glyph-name="r" horiz-adv-x="340" d="M94 0V384L84 531H114L124 407Q129 422 140 444T174 488T231 525T317 540V510Q264 510 230 491T174 446T142 393T127 351V0H94Z" />
<glyph unicode="s" glyph-name="s" horiz-adv-x="504" d="M414 382Q414 409 407 432T382 473T334 501T255 513Q205 513 174 504T124 478T98 442T91 402Q91 359 118 337T187 304T275 285T364 262T432 217T460 134Q460 66 411 28T251 -9Q152 -7 99 33T45 160H76Q76
92 119 56T251 19Q301 18 334 26T388 50T417 87T426 133Q426 168 411 189T369 224T310 244T243 258T175 273T116 297T74 338T57 402Q57 465 105 503T255 540Q354 538 400 499T446 382H414Z" />
<glyph unicode="t" glyph-name="t" horiz-adv-x="298" d="M236 -1Q187 -1 160 14T118 56T101 116T97 189V502H30V531H97V692L130 701V531H278V502H130V189Q130 155 133 126T147 75T179 41T238 29H281V-1H236Z" />
<glyph unicode="u" glyph-name="u" horiz-adv-x="568" d="M463 0L452 130Q446 116 432 93T393 47T335 8T255 -9Q209 -9 175 2T118 39T84 109T73 215V531H106V218Q106 120 138 71T258 21Q305 21 339 41T396 87T433 138T450 175V531H483V147L493 0H463Z" />
<glyph unicode="v" glyph-name="v" horiz-adv-x="473" d="M217 0L9 531H46L240 31L427 531H463L260 0H217Z" />
<glyph unicode="w" glyph-name="w" horiz-adv-x="730" d="M517 0L365 482L220 0H179L9 531H44L200 32L349 531H382L538 34L687 531H721L558 0H517Z" />
<glyph unicode="x" glyph-name="x" horiz-adv-x="452" d="M397 0L224 241L48 0H9L206 266L17 531H58L226 290L404 531H443L244 265L438 0H397Z" />
<glyph unicode="y" glyph-name="y" horiz-adv-x="469" d="M149 -218L228 0H219L9 531H47L239 29L423 531H459L181 -218H149Z" />
<glyph unicode="z" glyph-name="z" horiz-adv-x="408" d="M18 6V34V37L353 498L28 497V526H387V498H386L387 494L52 34L387 35V6H18Z" />
<glyph unicode="{" glyph-name="braceleft" horiz-adv-x="325" d="M315 -188Q258 -188 224 -180T173 -155T151 -109T146 -41Q146 -29 146 3T146 75T145 153T145 216Q145 231 142 241T130 259T103 269T58 272V302Q86 302 103 305T129 314T142 331T145 357V616Q145
656 150 684T172 729T224 754T315 762V730Q268 730 241 724T200 704T182 668T178 613Q178 601 178 569T178 498T177 421T177 357Q177 334 171 321T157 300T142 290T134 287Q135 287 142 284T157 274T171 252T178 216Q178 211 178 194T178 152T178 100T179 45T179
-4T179 -39Q179 -72 183 -94T200 -130T241 -150T315 -156V-188Z" />
<glyph unicode="|" glyph-name="bar" horiz-adv-x="213" d="M91 -196V820H122V-196H91Z" />
<glyph unicode="}" glyph-name="braceright" horiz-adv-x="325" d="M10 -156Q56 -156 83 -150T124 -130T142 -94T146 -39Q146 -27 146 -5T146 44T146 99T147 152T147 193T147 216Q147 238 153 252T167 273T181 284T190 287Q188 287 182 289T168 299T154 320T148
357Q148 379 148 417T148 495T147 567T147 613Q147 646 143 668T125 704T84 724T10 730V762Q67 762 101 755T152 730T175 684T180 616V357Q180 342 183 332T195 315T222 305T267 302V272Q239 272 222 269T196 259T183 242T180 216Q180 192 180 154T180 76T179 4T179
-41Q179 -81 174 -109T152 -154T101 -180T10 -188V-156Z" />
<glyph unicode="~" glyph-name="asciitilde" horiz-adv-x="431" d="M401 340Q401 330 397 316T383 288T354 266T306 256Q272 256 251 264T211 283T173 302T124 311Q105 311 92 305T71 289T60 271T56 256H30Q30 266 34 280T48 308T77 330T124 340Q158 340 179 332T219
313T257 294T306 285Q325 285 338 291T359 307T370 325T374 340H401Z" />
</font>
</defs>
</svg>
