<?xml version="1.0" encoding="utf-8"?>
<!-- Generator: Adobe Illustrator 19.0.0, SVG Export Plug-In . SVG Version: 6.00 Build 0)  -->
<svg version="1.1" id="Layer_1" xmlns="http://www.w3.org/2000/svg" xmlns:xlink="http://www.w3.org/1999/xlink" x="0px" y="0px"
	 viewBox="-348 731.9 582 338.1" style="enable-background:new -348 731.9 582 338.1;" xml:space="preserve">
<style type="text/css">
	.st0{fill:#333333;}
</style>
<path class="st0" d="M-419.5,675v452h735V675H-419.5z M224.8,1006.1l-38.2,38.2c-1.1,1.2-3,1.2-4.2,0l-23.6-23.6
	c-28.2,23.2-64.2,37.1-103.5,37.1c-88.8,0-161.1-71.2-163.3-159.9c0.2-1.4,1.4-2.4,2.9-2.4h54c1.7,0,3,1.3,3,3v2h0.2
	c3.4,54.3,48.4,97.3,103.1,97.3c22.7,0,43.6-7.4,60.7-19.9l-24.8-24.8c-1.2-1.1-1.2-3,0-4.2l38.2-38.2c1.1-1.2,3-1.2,4.2,0
	l18.7,18.7c4.1-11.1,6.3-23.2,6.3-35.7c0-55.5-43.4-101-97.8-103.9v-0.1v-0.1h-2.3c-0.2,0.1-0.4,0.1-0.7,0.1h-235.2
	c-1.7,0-3,1.3-3,3v233c0,1.6-1.3,3-3,3h-54c-1.7,0-3-1.4-3-3v-233c0-1.7-1.3-3-3-3h-100c-1.7,0-3-1.4-3-3v-54c0-1.7,1.3-3,3-3H57.6
	c0.2,0,0.3,0,0.4,0c88.9,1.6,160.5,74.4,160.5,164c0,29.4-7.7,57-21.1,80.9l27.3,27.3C225.8,1003,225.8,1005,224.8,1006.1z"/>
</svg>
