<?xml version="1.0" encoding="utf-8"?>
<!-- Generator: Adobe Illustrator 19.0.0, SVG Export Plug-In . SVG Version: 6.00 Build 0)  -->
<svg version="1.1" id="Layer_1" xmlns="http://www.w3.org/2000/svg" xmlns:xlink="http://www.w3.org/1999/xlink" x="0px" y="0px"
	 viewBox="-14 227.9 582 338.1" style="enable-background:new -14 227.9 582 338.1;" xml:space="preserve">
<path id="XMLID_3_" d="M562.2,505.3L534.9,478c13.4-23.9,21.1-51.5,21.1-80.9c0-89.6-71.6-162.4-160.5-164c-0.1,0-0.2,0-0.4,0H-6
	c-1.7,0-3,1.3-3,3v54c0,1.6,1.3,3,3,3H94c1.7,0,3,1.3,3,3v233c0,1.6,1.3,3,3,3h54c1.7,0,3-1.4,3-3v-233c0-1.7,1.3-3,3-3h235.2
	c0.3,0,0.5,0,0.7-0.1h2.3v0.1v0.1c54.4,2.9,97.8,48.4,97.8,103.9c0,12.5-2.2,24.6-6.3,35.7L471,414.1c-1.2-1.2-3.1-1.2-4.2,0
	l-38.2,38.2c-1.2,1.2-1.2,3.1,0,4.2l24.8,24.8c-17.1,12.5-38,19.9-60.7,19.9c-54.7,0-99.7-43-103.1-97.3h-0.2v-2c0-1.7-1.3-3-3-3
	h-54c-1.5,0-2.7,1-2.9,2.4c2.2,88.7,74.5,159.9,163.3,159.9c39.3,0,75.3-13.9,103.5-37.1l23.6,23.6c1.2,1.2,3.1,1.2,4.2,0l38.2-38.2
	C563.3,508.4,563.3,506.4,562.2,505.3z"/>
</svg>
