<svg xmlns="http://www.w3.org/2000/svg" viewBox="-144 134.2 582 338.1"><path d="M-212 84.5v452h735v-452h-735zm644.3 331.1l-38.2 38.2c-1.1 1.2-3 1.2-4.2 0l-23.6-23.6c-28.2 23.2-64.2 37.1-103.5 37.1-88.8 0-161.1-71.2-163.3-159.9.2-1.4 1.4-2.4 2.9-2.4h54c1.7 0 3 1.3 3 3v2h.2c3.4 54.3 48.4 97.3 103.1 97.3 22.7 0 43.6-7.4 60.7-19.9l-24.8-24.8c-1.2-1.1-1.2-3 0-4.2l38.2-38.2c1.1-1.2 3-1.2 4.2 0l18.7 18.7c4.1-11.1 6.3-23.2 6.3-35.7 0-55.5-43.4-101-97.8-103.9v-.2h-2.3c-.2.1-.4.1-.7.1H30c-1.7 0-3 1.3-3 3v233c0 1.6-1.3 3-3 3h-54c-1.7 0-3-1.4-3-3v-233c0-1.7-1.3-3-3-3h-100c-1.7 0-3-1.4-3-3v-54c0-1.7 1.3-3 3-3h401.5c88.9 1.6 160.5 74.4 160.5 164 0 29.4-7.7 57-21.1 80.9l27.3 27.3c1.1 1.1 1.1 3.1.1 4.2z"/></svg>